<svg xmlns="http://www.w3.org/2000/svg" viewBox="0 0 60 24">
  <!-- Apple Pay Logo -->
  <rect width="60" height="24" rx="3" fill="black"/>
  <!-- Apple logo -->
  <path d="M9 8.5c-.3-.4-.7-.8-1.2-.9.1.5.3.9.6 1.2.3.4.7.7 1.2.8-.1-.5-.3-.8-.6-1.1zm.9.3c-.6 0-1.2.4-1.5.4s-.8-.4-1.4-.4c-.7 0-1.4.4-1.8 1-.7 1.3-.2 3.1.5 4.1.4.5.8 1 1.3 1h.1c.5 0 .7-.3 1.3-.3s.8.3 1.3.3h.1c.6 0 .9-.6 1.3-1 .3-.5.4-.9.4-.9s-.8-.3-.8-1.3c0-.8.7-1.2.7-1.2s-.4-.6-1-1c-.4-.3-.9-.5-1.5-.7z" fill="white" transform="translate(2,5)"/>
  <!-- Pay text -->
  <text x="18" y="16" font-family="Arial, sans-serif" font-size="10" font-weight="400" fill="white" letter-spacing="0.5">Pay</text>
</svg>
