<?xml version="1.0" encoding="UTF-8"?>
<svg id="Calque_1" data-name="Calque 1" xmlns="http://www.w3.org/2000/svg" xmlns:xlink="http://www.w3.org/1999/xlink" viewBox="0 0 1172.54 471.1">
  <defs>
    <style>
      .cls-1 {
        fill: #fff;
        font-family: Impact, Impact;
        font-size: 133.17px;
        letter-spacing: .08em;
      }

      .cls-2 {
        fill: #010101;
      }

      .cls-3 {
        fill: #1d2444;
      }

      .cls-4 {
        fill: #f8af2f;
        font-family: Sublima-ExtraBold, Sublima;
        font-size: 87.74px;
        font-weight: 700;
        letter-spacing: .3em;
      }

      .cls-5 {
        fill: #fcfac7;
      }

      .cls-6 {
        fill: #de8320;
      }

      .cls-6, .cls-7, .cls-8 {
        stroke: #000;
        stroke-miterlimit: 10;
        stroke-width: 12px;
      }

      .cls-7 {
        fill: url(#Dégradé_sans_nom_74);
      }

      .cls-8 {
        fill: url(#Dégradé_sans_nom_98);
      }
    </style>
    <linearGradient id="Dégradé_sans_nom_74" data-name="Dégradé sans nom 74" x1="901.77" y1="247.95" x2="983.93" y2="105.64" gradientUnits="userSpaceOnUse">
      <stop offset=".47" stop-color="#c0581a"/>
      <stop offset="1" stop-color="#a44516"/>
    </linearGradient>
    <linearGradient id="Dégradé_sans_nom_98" data-name="Dégradé sans nom 98" x1="964.69" y1="359.59" x2="1097.92" y2="226.36" gradientUnits="userSpaceOnUse">
      <stop offset=".37" stop-color="#c0581a"/>
      <stop offset="1" stop-color="#a44516"/>
    </linearGradient>
  </defs>
  <rect class="cls-2" width="1172.54" height="473.43"/>
  <ellipse class="cls-3" cx="953.41" cy="143.46" rx="13.62" ry="6.86"/>
  <g>
    <ellipse class="cls-3" cx="827.5" cy="271.87" rx="13.62" ry="6.86" transform="translate(-25.07 450.17) rotate(-30)"/>
    <ellipse class="cls-3" cx="860.29" cy="243.9" rx="13.62" ry="6.86"/>
    <ellipse class="cls-3" cx="875.28" cy="273.96" rx="6.86" ry="13.62" transform="translate(-2.63 539.35) rotate(-34.2)"/>
    <ellipse class="cls-3" cx="880.9" cy="304.1" rx="13.62" ry="6.86" transform="translate(-47.98 229.01) rotate(-14.42)"/>
    <ellipse class="cls-3" cx="845.53" cy="292.04" rx="13.62" ry="6.86" transform="translate(491.02 1113.34) rotate(-85.71)"/>
    <ellipse class="cls-3" cx="840.52" cy="328.81" rx="6.86" ry="13.62" transform="translate(413.31 1123.85) rotate(-83.11)"/>
    <ellipse class="cls-3" cx="806.05" cy="302.42" rx="6.86" ry="13.62" transform="translate(22.24 658.54) rotate(-45)"/>
  </g>
  <ellipse class="cls-3" cx="989.4" cy="159.97" rx="6.86" ry="13.62" transform="translate(413.23 980.05) rotate(-64.09)"/>
  <ellipse class="cls-3" cx="978.83" cy="196.01" rx="13.62" ry="6.86" transform="translate(179.67 794.23) rotate(-48.14)"/>
  <ellipse class="cls-3" cx="959.71" cy="179.67" rx="6.86" ry="13.62"/>
  <ellipse class="cls-3" cx="924.67" cy="177.57" rx="13.62" ry="6.86" transform="translate(35.1 486.13) rotate(-30)"/>
  <ellipse class="cls-3" cx="938.43" cy="211.3" rx="6.86" ry="13.62" transform="translate(43.5 564.01) rotate(-34.2)"/>
  <ellipse class="cls-3" cx="883.24" cy="193.79" rx="13.62" ry="6.86" transform="translate(273.79 861.8) rotate(-60)"/>
  <g>
    <g>
      <path class="cls-7" d="M1024.87,174.38c2.08,50.62-34.27,73.82-75.93,78.61-59.56,6.85-91.13-32.52-91.13-75.93s45.57-83.38,91.13-81.29c41.89,1.92,74.15,35.23,75.93,78.61Z"/>
      <g>
        <ellipse class="cls-5" cx="950.66" cy="142.46" rx="13.62" ry="6.86"/>
        <ellipse class="cls-5" cx="986.64" cy="158.97" rx="6.86" ry="13.62" transform="translate(412.59 977.01) rotate(-64.09)"/>
        <ellipse class="cls-5" cx="976.08" cy="195.01" rx="13.62" ry="6.86" transform="translate(179.5 791.85) rotate(-48.14)"/>
        <ellipse class="cls-5" cx="956.96" cy="178.67" rx="6.86" ry="13.62"/>
        <ellipse class="cls-5" cx="921.92" cy="176.57" rx="13.62" ry="6.86" transform="translate(35.23 484.62) rotate(-30)"/>
        <ellipse class="cls-5" cx="935.68" cy="210.29" rx="6.86" ry="13.62" transform="translate(43.59 562.29) rotate(-34.2)"/>
        <ellipse class="cls-5" cx="880.49" cy="192.79" rx="13.62" ry="6.86" transform="translate(273.29 858.92) rotate(-60)"/>
      </g>
    </g>
    <g>
      <path class="cls-8" d="M1072.34,212.44s-133.04-35.66-133.89,79,125.16,85.66,125.16,85.66c0,0,67.06-15.06,62.37-86.07s-53.64-78.59-53.64-78.59Z"/>
      <g>
        <ellipse class="cls-5" cx="985.44" cy="265.23" rx="6.86" ry="13.62" transform="translate(-21.9 101.79) rotate(-5.85)"/>
        <ellipse class="cls-5" cx="1025.19" cy="251.87" rx="6.86" ry="13.62" transform="translate(610.42 1222.66) rotate(-80.67)"/>
        <ellipse class="cls-5" cx="1074.46" cy="251.42" rx="6.86" ry="13.62" transform="translate(238.49 971.72) rotate(-53.92)"/>
        <ellipse class="cls-5" cx="1067.34" cy="286.43" rx="13.62" ry="6.86" transform="translate(611.63 1293.2) rotate(-80.67)"/>
        <ellipse class="cls-5" cx="1028.72" cy="280.58" rx="13.62" ry="6.86" transform="translate(-2.47 551.95) rotate(-30)"/>
        <ellipse class="cls-5" cx="1051.49" cy="314.3" rx="6.86" ry="13.62" transform="translate(348.37 1156.93) rotate(-66.8)"/>
        <ellipse class="cls-5" cx="998.91" cy="306.01" rx="6.86" ry="13.62" transform="translate(48.29 739.35) rotate(-41.54)"/>
      </g>
    </g>
    <g>
      <path class="cls-6" d="M945.09,303.92c-5.79,44.01-22.75,74.81-84.41,80.37-46.43,4.19-90.98-39.52-90.98-83.9s23.76-101.59,89.97-98.56c46.57,2.13,93,44.48,85.42,102.1Z"/>
      <g>
        <ellipse class="cls-5" cx="831.33" cy="265.64" rx="13.62" ry="6.86" transform="translate(-21.44 451.25) rotate(-30)"/>
        <ellipse class="cls-5" cx="864.13" cy="237.66" rx="13.62" ry="6.86"/>
        <ellipse class="cls-5" cx="879.12" cy="267.72" rx="6.86" ry="13.62" transform="translate(1.53 540.43) rotate(-34.2)"/>
        <ellipse class="cls-5" cx="884.73" cy="297.86" rx="13.62" ry="6.86" transform="translate(-46.31 229.77) rotate(-14.42)"/>
        <ellipse class="cls-5" cx="849.37" cy="285.81" rx="13.62" ry="6.86" transform="translate(500.79 1111.4) rotate(-85.71)"/>
        <ellipse class="cls-5" cx="844.36" cy="322.58" rx="6.86" ry="13.62" transform="translate(422.88 1122.17) rotate(-83.11)"/>
        <ellipse class="cls-5" cx="809.89" cy="296.19" rx="6.86" ry="13.62" transform="translate(27.78 659.43) rotate(-45)"/>
      </g>
    </g>
  </g>
  <g>
    <text class="cls-1" transform="translate(51.71 241.26) scale(.97 1)"><tspan x="0" y="0">BEYROUTH</tspan></text>
    <text class="cls-4" transform="translate(51.78 327.19)"><tspan x="0" y="0">EXPRESS</tspan></text>
  </g>
</svg>